<?xml version="1.0" standalone="no"?>
<!DOCTYPE svg PUBLIC "-//W3C//DTD SVG 20010904//EN"
 "http://www.w3.org/TR/2001/REC-SVG-20010904/DTD/svg10.dtd">
<svg version="1.0" xmlns="http://www.w3.org/2000/svg"
 width="512.000000pt" height="512.000000pt" viewBox="0 0 512.000000 512.000000"
 preserveAspectRatio="xMidYMid meet">
<metadata>
Created by potrace 1.11, written by Peter Selinger 2001-2013
</metadata>
<g transform="translate(0.000000,512.000000) scale(0.100000,-0.100000)"
fill="#000000" stroke="none">
<path d="M2310 5113 c-25 -2 -99 -13 -165 -24 -723 -119 -1360 -543 -1759
-1169 -134 -211 -273 -551 -330 -810 -76 -344 -76 -756 0 -1100 80 -365 268
-759 501 -1050 339 -426 844 -751 1373 -885 232 -59 324 -69 630 -69 306 0
398 10 630 69 529 134 1034 459 1373 885 233 291 420 684 501 1051 75 338 75
760 0 1098 -57 260 -196 600 -330 811 -399 626 -1021 1040 -1759 1171 -96 17
-169 21 -370 24 -137 1 -270 1 -295 -2z m1603 -1786 l57 -52 -300 -314 c-165
-173 -300 -317 -300 -320 0 -3 149 -197 331 -431 182 -234 340 -437 351 -452
l19 -28 -108 0 -108 0 -305 392 -304 391 -93 -97 -93 -98 0 -294 0 -294 -95 0
-95 0 0 810 0 810 95 0 95 0 2 -394 3 -395 389 410 c213 225 391 409 395 409
3 0 32 -24 64 -53z m-2470 -392 c159 -225 292 -411 295 -412 4 -1 133 184 287
412 l280 414 58 1 57 0 0 -810 0 -810 -90 0 -90 0 0 610 c0 336 -3 610 -7 610
-5 -1 -109 -153 -233 -338 -222 -331 -226 -337 -259 -337 -33 0 -39 7 -270
341 l-236 341 -3 -614 -2 -613 -95 0 -95 0 0 810 0 811 57 -3 58 -3 288 -410z"/>
</g>
</svg>
